# xmcd
#
# Track frame offsets: 
#        150
#        13512
#        24134
#        38775
#        50262
#        62094
#        75329
#        86101
#        102399
#        112776
#        130337
#        140787
#        149305
#        160161
#        176153
#
# Disc length: 2648 seconds
#
# Revision: 0
# Processed by: cddbd v1.5.2PL0 Copyright (c) Steve Scherf et al.
# Submitted via: ExactAudioCopyFreeDBPlugin 1.0
#
DISCID=bf0a560f
DTITLE=Humdingers - Junkyard Jamboree
DYEAR=2009
DGENRE=Country
TTITLE0=Junkyard Jamboree
TTITLE1=Hillbilly Thang
TTITLE2=Six Days On The Road
TTITLE3=How Come It
TTITLE4=You're My World (Pretty Baby)
TTITLE5=Psyschic Lady
TTITLE6=The Electrified Donkey
TTITLE7=You Don't Love Me
TTITLE8=Swampjam
TTITLE9=Georgia On A Fast Train
TTITLE10=Chase Down These Blues (Hey Bartender)
TTITLE11=I'll Be Gone
TTITLE12=Trying To Get To You
TTITLE13=Train Of Pain
TTITLE14=I Believe In Sin
EXTD=
EXTT0=
EXTT1=
EXTT2=
EXTT3=
EXTT4=
EXTT5=
EXTT6=
EXTT7=
EXTT8=
EXTT9=
EXTT10=
EXTT11=
EXTT12=
EXTT13=
EXTT14=
PLAYORDER=
